{"title":"Heroine 2012 Hindi Upscaled DvDrip x264 Untouched AC3...Hon3y","uid":7778432,"size":1884787048,"categoryP":"video","categoryS":"hd___movies","magnet":"?xt=urn:btih:d8ed0a4df6ba8efce0dcc8c6280b2afbb230d129&amp;dn=Heroine+2012+Hindi+Upscaled+DvDrip+x264+Untouched+AC3...Hon3y&amp;tr=udp%3A%2F%2Ftracker.openbittorrent.com%3A80&amp;tr=udp%3A%2F%2Fopen.demonii.com%3A1337&amp;tr=udp%3A%2F%2Ftracker.coppersurfer.tk%3A6969&amp;tr=udp%3A%2F%2Fexodus.desync.com%3A6969","seeders":0,"leechers":1,"uploader":"honey8ee","files":11,"time":1351710355,"description":" &lt;a href=&quot;http://en.wikipedia.org/wiki/Heroine_(2012_film)&quot; rel=&quot;nofollow&quot; target=&quot;_NEW&quot;&gt;http://en.wikipedia.org/wiki/Heroine_(2012_film)&lt;/a&gt;\n &lt;a href=&quot;\nhttp://www.imdb.com/title/tt1949548/&quot; rel=&quot;nofollow&quot; target=&quot;_NEW&quot;&gt;\nhttp://www.imdb.com/title/tt1949548/&lt;/a&gt;\n\nSourece                                  : DVD9\nSample                                   : Yes\n\nFormat                                   : Matroska\nFormat version                           : Version 2\nFile size                                : 1.74 GiB\nDuration                                 : 2h 30mn\nOverall bit rate                         : 1 657 Kbps\n\n\nVideo\nID                                       : 1\nFormat                                   : AVC\nFormat/Info                              : Advanced Video Codec\nFormat profile                           : &lt;a class=&quot;__cf_email__&quot; href=&quot;/cdn-cgi/l/email-protection&quot; data-cfemail=&quot;6028090708202c534e50&quot;&gt;[email&amp;#160;protected]&lt;/a&gt;&lt;script cf-hash='f9e31' type=&quot;text/javascript&quot;&gt;\n/* &lt;![CDATA[ */!function(){try{var t=&quot;currentScript&quot;in document?document.currentScript:function(){for(var t=document.getElementsByTagName(&quot;script&quot;),e=t.length;e--;)if(t[e].getAttribute(&quot;cf-hash&quot;))return t[e]}();if(t&amp;&amp;t.previousSibling){var e,r,n,i,c=t.previousSibling,a=c.getAttribute(&quot;data-cfemail&quot;);if(a){for(e=&quot;&quot;,r=parseInt(a.substr(0,2),16),n=2;a.length-n;n+=2)i=parseInt(a.substr(n,2),16)^r,e+=String.fromCharCode(i);e=document.createTextNode(e),c.parentNode.replaceChild(e,c)}}}catch(u){}}();/* ]]&gt; */&lt;/script&gt;\nFormat settings, CABAC                   : Yes\nFormat settings, ReFrames                : 5 frames\nCodec ID                                 : V_MPEG4/ISO/AVC\nDuration                                 : 2h 30mn\nBit rate                                 : 1 200 Kbps\nWidth                                    : 864 pixels\nHeight                                   : 368 pixels\nDisplay aspect ratio                     : 2.35:1\nFrame rate                               : 24.000 fps\nColor space                              : YUV\nChroma subsampling                       : 4:2:0\nBit depth                                : 8 bits\nScan type                                : Progressive\nBits/(Pixel*Frame)                       : 0.157\nStream size                              : 1.23 GiB (71%)\n\n\nAudio\nID                                       : 2\nFormat                                   : AC-3\nBit rate mode                            : Constant\nBit rate                                 : 448 Kbps\nChannel(s)                               : 6 channels\nChannel positions                        : Front: L C R, Side: L R, LFE\nSampling rate                            : 48.0 KHz\nBit depth                                : 16 bits\nCompression mode                         : Lossy\nStream size                              : 481 MiB (27%)\nLanguage                                 : Hindi\n\nSubtitle                                 : English\n &lt;a href=&quot;\nhttp://www.freeimgsharing.com/images/85697576103613876183.png&quot; rel=&quot;nofollow&quot; target=&quot;_NEW&quot;&gt;\nhttp://www.freeimgsharing.com/images/85697576103613876183.png&lt;/a&gt; &lt;a href=&quot;\nhttp://www.freeimgsharing.com/images/37398650321732908986.png&quot; rel=&quot;nofollow&quot; target=&quot;_NEW&quot;&gt;\nhttp://www.freeimgsharing.com/images/37398650321732908986.png&lt;/a&gt; &lt;a href=&quot;\nhttp://www.freeimgsharing.com/images/48964725024115078835.png&quot; rel=&quot;nofollow&quot; target=&quot;_NEW&quot;&gt;\nhttp://www.freeimgsharing.com/images/48964725024115078835.png&lt;/a&gt; &lt;a href=&quot;\nhttp://www.freeimgsharing.com/images/75127771440227492716.png&quot; rel=&quot;nofollow&quot; target=&quot;_NEW&quot;&gt;\nhttp://www.freeimgsharing.com/images/75127771440227492716.png&lt;/a&gt; &lt;a href=&quot;\nhttp://www.freeimgsharing.com/images/27632110192848463318.png&quot; rel=&quot;nofollow&quot; target=&quot;_NEW&quot;&gt;\nhttp://www.freeimgsharing.com/images/27632110192848463318.png&lt;/a&gt; &lt;a href=&quot;\nhttp://www.freeimgsharing.com/images/60873076670102403138.png&quot; rel=&quot;nofollow&quot; target=&quot;_NEW&quot;&gt;\nhttp://www.freeimgsharing.com/images/60873076670102403138.png&lt;/a&gt; &lt;a href=&quot;\nhttp://www.freeimgsharing.com/images/22857778400497098995.png&quot; rel=&quot;nofollow&quot; target=&quot;_NEW&quot;&gt;\nhttp://www.freeimgsharing.com/images/22857778400497098995.png&lt;/a&gt; &lt;a href=&quot;\nhttp://www.freeimgsharing.com/images/81583676482008437225.png&quot; rel=&quot;nofollow&quot; target=&quot;_NEW&quot;&gt;\nhttp://www.freeimgsharing.com/images/81583676482008437225.png&lt;/a&gt; &lt;a href=&quot;\nhttp://www.freeimgsharing.com/images/85403593609287938509.png&quot; rel=&quot;nofollow&quot; target=&quot;_NEW&quot;&gt;\nhttp://www.freeimgsharing.com/images/85403593609287938509.png&lt;/a&gt;\n\nFor Best Result Use media player classic home cinema or vlc player.\nAfter that no need 720p Version.Try with sample.","torrent":{"xt":"urn:btih:d8ed0a4df6ba8efce0dcc8c6280b2afbb230d129","amp;dn":"Heroine+2012+Hindi+Upscaled+DvDrip+x264+Untouched+AC3...Hon3y","amp;tr":["udp%3A%2F%2Ftracker.openbittorrent.com%3A80","udp%3A%2F%2Fopen.demonii.com%3A1337","udp%3A%2F%2Ftracker.coppersurfer.tk%3A6969","udp%3A%2F%2Fexodus.desync.com%3A6969"],"infoHash":"d8ed0a4df6ba8efce0dcc8c6280b2afbb230d129","infoHashBuffer":{"type":"Buffer","data":[216,237,10,77,246,186,142,252,224,220,200,198,40,11,42,251,178,48,209,41]},"announce":[],"urlList":[]}}